<svg id="Layer_1" data-name="Layer 1" xmlns="http://www.w3.org/2000/svg" viewBox="0 0 472.5 90.89"><defs><style>.cls-1{fill:#fff;}</style></defs><path class="cls-1" d="M137.64,78.76V25.56h10.19L170.47,63.1h-5.39l22.27-37.54h10.1l.16,53.2H186.05L186,43.27h2.13L170.32,73.14h-5.55L146.61,43.27h2.58V78.76Z"/><path class="cls-1" d="M241.15,79.67a32.29,32.29,0,0,1-11.66-2,27.49,27.49,0,0,1-9.28-5.78,26.35,26.35,0,0,1-6.08-8.74A27.35,27.35,0,0,1,212,52.16a27.35,27.35,0,0,1,2.16-10.94,26.17,26.17,0,0,1,6.12-8.74,28.15,28.15,0,0,1,9.27-5.78,33.7,33.7,0,0,1,23.15,0,27.69,27.69,0,0,1,9.19,5.78A27.78,27.78,0,0,1,268,63.14a26.34,26.34,0,0,1-6.12,8.74,28.08,28.08,0,0,1-9.19,5.74A31.53,31.53,0,0,1,241.15,79.67Zm-.07-10.49A17.34,17.34,0,0,0,247.65,68a15.77,15.77,0,0,0,5.28-3.5,16.09,16.09,0,0,0,3.54-5.39,19.78,19.78,0,0,0,0-13.84,16.45,16.45,0,0,0-3.5-5.39,15.29,15.29,0,0,0-5.28-3.5,17.66,17.66,0,0,0-6.61-1.21,17.36,17.36,0,0,0-6.58,1.21,15.86,15.86,0,0,0-8.81,8.89,19.52,19.52,0,0,0,0,13.8,16.14,16.14,0,0,0,3.49,5.43,15.38,15.38,0,0,0,5.28,3.5A17.67,17.67,0,0,0,241.08,69.18Z"/><path class="cls-1" d="M287.51,78.76V25.56H309.7q8.6,0,13.46,3.5T328,39.16a11.92,11.92,0,0,1-7.71,11.75,21.33,21.33,0,0,1-8.1,1.48l1.37-1.52a24.64,24.64,0,0,1,9.35,1.59,12.59,12.59,0,0,1,5.89,4.64,13.5,13.5,0,0,1,2,7.6A12.25,12.25,0,0,1,326,75.07q-4.86,3.69-14.75,3.69Zm3.88-3.34h19.83q7.68,0,11.71-2.63t4-8.39q0-5.7-4-8.33t-11.71-2.62H290.93V50.11h18.62q6.92,0,10.72-2.66t3.8-8a9,9,0,0,0-3.8-7.91q-3.81-2.65-10.72-2.66H291.39Z"/><path class="cls-1" d="M349.76,78.76V25.56h3.87v53.2Z"/><path class="cls-1" d="M377.27,78.76V25.56h3.87v53.2Zm3.34-13.45-.15-4.87,33.9-34.88h4.71L395.36,50.11l-2.21,2.35ZM416,78.76,392,51.4l2.66-2.81,26,30.17Z"/><path class="cls-1" d="M439.66,75.26H472.5v3.5H435.79V25.56h35.56v3.5H439.66ZM439.21,50H468v3.42h-28.8Z"/><g id="OBJECTS"><path class="cls-1" d="M121.92,94.69"/><path class="cls-1" d="M71.6,82c-.1,0-.1,0-.1.11v.11a15.08,15.08,0,0,0,9.21,2.85c8.48,0,15.36-6.56,15.36-14.61A6.8,6.8,0,0,0,96,69,19,19,0,0,1,77.43,82.72,21.48,21.48,0,0,1,71.6,82Z"/><path class="cls-1" d="M94.48,45.33C86.64,41.73,78,42.58,65,51.8L37.81,70.33V69A21.95,21.95,0,0,0,.74,53.07a.2.2,0,0,0,0,.31.2.2,0,0,0,.32,0,18.53,18.53,0,1,1,9.64,34A18.67,18.67,0,0,1,.21,83.78c-.1,0-.21,0-.21.11v.21a21.81,21.81,0,0,0,15.78,6.78,26.23,26.23,0,0,0,9.43-1.59c4-1.59,39.3-29,50.74-35.38a16.22,16.22,0,0,1,14-.95c4.55,1.91,9.21,6.25,9.53,16.21s-8.16,18-18,18.22A19.26,19.26,0,0,1,70,83.89a.14.14,0,0,0-.21,0,.15.15,0,0,0,0,.21h0a22.1,22.1,0,0,0,15.78,6.67c12.08,0,22.25-11.43,22.25-23.51C107.83,58.79,101.68,48.62,94.48,45.33Z"/><path class="cls-1" d="M2.65,81.35c-.11,0-.21,0-.21.1s0,.22.1.22a16.12,16.12,0,0,0,9,2.75C20,84.42,26.9,77.85,26.9,69.8a7.37,7.37,0,0,0-.1-1.48A19,19,0,0,1,8.26,82.09,16.6,16.6,0,0,1,2.65,81.35Z"/><path class="cls-1" d="M22.77,32.62,43.32,49.15a2,2,0,0,1,.74,1.48V61.86l6.68-4.66a2,2,0,0,0,.84-1.59V47.14a2,2,0,0,0-.84-1.59l-17-13.67a2,2,0,0,1-.32-2.75l.11-.11,5.61-5.72a2.08,2.08,0,0,1,2.75-.1l9,8.15a1.69,1.69,0,0,0,1.16.53l8.9.85A1.78,1.78,0,0,0,62.6,32l2.75-3.71A2,2,0,0,0,65,25.53,2.31,2.31,0,0,0,64,25.1l-8.69-.53A2.18,2.18,0,0,1,54,24L41.63,12.82a2,2,0,0,0-2.76.1L22.56,29.66a2,2,0,0,0,0,2.75Z"/><path class="cls-1" d="M64.82,40.67l5.09-.21a1.1,1.1,0,0,0,1-.53l6.89-10.17a1.32,1.32,0,0,1,1.06-.53l8.36-.31a1.18,1.18,0,0,0,1.17-1.17h0l1.27-3.49a1.18,1.18,0,0,0-1.17-1.17H74.67a1.28,1.28,0,0,0-1,.53l-10,15.25a1.33,1.33,0,0,0,.32,1.7A2.42,2.42,0,0,0,64.82,40.67Z"/><circle class="cls-1" cx="52.75" cy="7.2" r="7.2"/></g></svg>